<svg width="179" height="48" viewBox="0 0 179 48" fill="none" xmlns="http://www.w3.org/2000/svg">
<circle cx="75" cy="24" r="3" fill="#456699"/>
<path d="M4.48 15.16C3.69067 15.16 3.02933 14.9147 2.496 14.424C1.984 13.912 1.728 13.2827 1.728 12.536C1.728 11.7893 1.984 11.1707 2.496 10.68C3.02933 10.168 3.69067 9.912 4.48 9.912C5.26933 9.912 5.92 10.168 6.432 10.68C6.96533 11.1707 7.232 11.7893 7.232 12.536C7.232 13.2827 6.96533 13.912 6.432 14.424C5.92 14.9147 5.26933 15.16 4.48 15.16ZM6.688 17.272V35H2.208V17.272H6.688ZM20.9383 17.016C23.0503 17.016 24.7569 17.688 26.0583 19.032C27.3596 20.3547 28.0103 22.2107 28.0103 24.6V35H23.5303V25.208C23.5303 23.8 23.1783 22.7227 22.4743 21.976C21.7703 21.208 20.8103 20.824 19.5943 20.824C18.3569 20.824 17.3756 21.208 16.6503 21.976C15.9463 22.7227 15.5943 23.8 15.5943 25.208V35H11.1143V17.272H15.5943V19.48C16.1916 18.712 16.9489 18.1147 17.8663 17.688C18.8049 17.24 19.8289 17.016 20.9383 17.016ZM48.7505 25.752C48.7505 26.392 48.7078 26.968 48.6225 27.48H35.6625C35.7692 28.76 36.2172 29.7627 37.0065 30.488C37.7958 31.2133 38.7665 31.576 39.9185 31.576C41.5825 31.576 42.7665 30.8613 43.4705 29.432H48.3025C47.7905 31.1387 46.8092 32.5467 45.3585 33.656C43.9078 34.744 42.1265 35.288 40.0145 35.288C38.3078 35.288 36.7718 34.9147 35.4065 34.168C34.0625 33.4 33.0065 32.3227 32.2385 30.936C31.4918 29.5493 31.1185 27.9493 31.1185 26.136C31.1185 24.3013 31.4918 22.6907 32.2385 21.304C32.9852 19.9173 34.0305 18.8507 35.3745 18.104C36.7185 17.3573 38.2652 16.984 40.0145 16.984C41.6998 16.984 43.2038 17.3467 44.5265 18.072C45.8705 18.7973 46.9052 19.832 47.6305 21.176C48.3772 22.4987 48.7505 24.024 48.7505 25.752ZM44.1105 24.472C44.0892 23.32 43.6732 22.4027 42.8625 21.72C42.0518 21.016 41.0598 20.664 39.8865 20.664C38.7772 20.664 37.8385 21.0053 37.0705 21.688C36.3238 22.3493 35.8652 23.2773 35.6945 24.472H44.1105ZM58.8045 35.288C57.3538 35.288 56.0525 35.032 54.9005 34.52C53.7485 33.9867 52.8312 33.272 52.1485 32.376C51.4872 31.48 51.1245 30.488 51.0605 29.4H55.5725C55.6578 30.0827 55.9885 30.648 56.5645 31.096C57.1618 31.544 57.8978 31.768 58.7725 31.768C59.6258 31.768 60.2872 31.5973 60.7565 31.256C61.2472 30.9147 61.4925 30.4773 61.4925 29.944C61.4925 29.368 61.1938 28.9413 60.5965 28.664C60.0205 28.3653 59.0925 28.0453 57.8125 27.704C56.4898 27.384 55.4018 27.0533 54.5485 26.712C53.7165 26.3707 52.9912 25.848 52.3725 25.144C51.7752 24.44 51.4765 23.4907 51.4765 22.296C51.4765 21.3147 51.7538 20.4187 52.3085 19.608C52.8845 18.7973 53.6952 18.1573 54.7405 17.688C55.8072 17.2187 57.0552 16.984 58.4845 16.984C60.5965 16.984 62.2818 17.5173 63.5405 18.584C64.7992 19.6293 65.4925 21.048 65.6205 22.84H61.3325C61.2685 22.136 60.9698 21.5813 60.4365 21.176C59.9245 20.7493 59.2312 20.536 58.3565 20.536C57.5458 20.536 56.9165 20.6853 56.4685 20.984C56.0418 21.2827 55.8285 21.6987 55.8285 22.232C55.8285 22.8293 56.1272 23.288 56.7245 23.608C57.3218 23.9067 58.2498 24.216 59.5085 24.536C60.7885 24.856 61.8445 25.1867 62.6765 25.528C63.5085 25.8693 64.2232 26.4027 64.8205 27.128C65.4392 27.832 65.7592 28.7707 65.7805 29.944C65.7805 30.968 65.4925 31.8853 64.9165 32.696C64.3618 33.5067 63.5512 34.1467 62.4845 34.616C61.4392 35.064 60.2125 35.288 58.8045 35.288ZM89.188 19.864C89.764 19.0107 90.5533 18.3173 91.556 17.784C92.58 17.2507 93.7427 16.984 95.044 16.984C96.5587 16.984 97.924 17.3573 99.14 18.104C100.377 18.8507 101.348 19.9173 102.052 21.304C102.777 22.6693 103.14 24.2587 103.14 26.072C103.14 27.8853 102.777 29.496 102.052 30.904C101.348 32.2907 100.377 33.368 99.14 34.136C97.924 34.904 96.5587 35.288 95.044 35.288C93.7213 35.288 92.5587 35.032 91.556 34.52C90.5747 33.9867 89.7853 33.304 89.188 32.472V35H84.708V11.32H89.188V19.864ZM98.564 26.072C98.564 25.0053 98.34 24.088 97.892 23.32C97.4653 22.5307 96.8893 21.9333 96.164 21.528C95.46 21.1227 94.692 20.92 93.86 20.92C93.0493 20.92 92.2813 21.1333 91.556 21.56C90.852 21.9653 90.276 22.5627 89.828 23.352C89.4013 24.1413 89.188 25.0693 89.188 26.136C89.188 27.2027 89.4013 28.1307 89.828 28.92C90.276 29.7093 90.852 30.3173 91.556 30.744C92.2813 31.1493 93.0493 31.352 93.86 31.352C94.692 31.352 95.46 31.1387 96.164 30.712C96.8893 30.2853 97.4653 29.6773 97.892 28.888C98.34 28.0987 98.564 27.16 98.564 26.072ZM105.243 26.072C105.243 24.28 105.595 22.6907 106.299 21.304C107.025 19.9173 107.996 18.8507 109.212 18.104C110.449 17.3573 111.825 16.984 113.34 16.984C114.662 16.984 115.814 17.2507 116.796 17.784C117.798 18.3173 118.598 18.9893 119.196 19.8V17.272H123.708V35H119.196V32.408C118.62 33.24 117.82 33.9333 116.796 34.488C115.793 35.0213 114.63 35.288 113.308 35.288C111.814 35.288 110.449 34.904 109.212 34.136C107.996 33.368 107.025 32.2907 106.299 30.904C105.595 29.496 105.243 27.8853 105.243 26.072ZM119.196 26.136C119.196 25.048 118.982 24.12 118.556 23.352C118.129 22.5627 117.553 21.9653 116.828 21.56C116.102 21.1333 115.324 20.92 114.492 20.92C113.66 20.92 112.892 21.1227 112.188 21.528C111.484 21.9333 110.908 22.5307 110.46 23.32C110.033 24.088 109.82 25.0053 109.82 26.072C109.82 27.1387 110.033 28.0773 110.46 28.888C110.908 29.6773 111.484 30.2853 112.188 30.712C112.913 31.1387 113.681 31.352 114.492 31.352C115.324 31.352 116.102 31.1493 116.828 30.744C117.553 30.3173 118.129 29.72 118.556 28.952C118.982 28.1627 119.196 27.224 119.196 26.136ZM132.563 20.024C133.139 19.0853 133.886 18.3493 134.803 17.816C135.742 17.2827 136.808 17.016 138.003 17.016V21.72H136.819C135.411 21.72 134.344 22.0507 133.619 22.712C132.915 23.3733 132.563 24.5253 132.563 26.168V35H128.083V17.272H132.563V20.024ZM148.893 35.288C147.186 35.288 145.65 34.9147 144.285 34.168C142.919 33.4 141.842 32.3227 141.053 30.936C140.285 29.5493 139.901 27.9493 139.901 26.136C139.901 24.3227 140.295 22.7227 141.085 21.336C141.895 19.9493 142.994 18.8827 144.381 18.136C145.767 17.368 147.314 16.984 149.021 16.984C150.727 16.984 152.274 17.368 153.661 18.136C155.047 18.8827 156.135 19.9493 156.925 21.336C157.735 22.7227 158.141 24.3227 158.141 26.136C158.141 27.9493 157.725 29.5493 156.892 30.936C156.082 32.3227 154.973 33.4 153.565 34.168C152.178 34.9147 150.621 35.288 148.893 35.288ZM148.893 31.384C149.703 31.384 150.461 31.192 151.165 30.808C151.89 30.4027 152.466 29.8053 152.893 29.016C153.319 28.2267 153.533 27.2667 153.533 26.136C153.533 24.4507 153.085 23.16 152.189 22.264C151.314 21.3467 150.237 20.888 148.957 20.888C147.677 20.888 146.599 21.3467 145.725 22.264C144.871 23.16 144.445 24.4507 144.445 26.136C144.445 27.8213 144.861 29.1227 145.693 30.04C146.546 30.936 147.613 31.384 148.893 31.384ZM152.701 12.44L145.341 15.8V12.6L152.701 8.792V12.44ZM171.251 17.016C173.363 17.016 175.069 17.688 176.371 19.032C177.672 20.3547 178.323 22.2107 178.323 24.6V35H173.843V25.208C173.843 23.8 173.491 22.7227 172.787 21.976C172.083 21.208 171.123 20.824 169.907 20.824C168.669 20.824 167.688 21.208 166.963 21.976C166.259 22.7227 165.907 23.8 165.907 25.208V35H161.427V17.272H165.907V19.48C166.504 18.712 167.261 18.1147 168.179 17.688C169.117 17.24 170.141 17.016 171.251 17.016Z" fill="#456699"/>
</svg>
